<svg xmlns="http://www.w3.org/2000/svg" width="827" height="168" class="o-svg" viewBox="-10 -10 837 178"><style>.svg__training__text{fill:#1a1e23;font:18px Arial,sans-serif}.svg__training__text-code{fill:#1a1e23;font:700 16px Menlo,Monaco,Consolas,&quot;Liberation Mono&quot;,&quot;Courier New&quot;,monospace}</style><defs><linearGradient id="a" x1="0%" x2="0%" y1="100%" y2="0%"><stop offset="0%" stop-color="#F99"/><stop offset="100%" stop-color="#B3FF66"/></linearGradient></defs><path fill="none" stroke="#999" stroke-miterlimit="10" stroke-width="2" d="M561 103h-6v46H251v-35.8"/><path fill="#999" stroke="#999" stroke-miterlimit="10" stroke-width="2" d="M251 107.2l4 8-4-2-4 2z"/><rect width="80" height="20" fill="#f6f6f6" transform="translate(372 138.5)"/><text width="65" height="16" class="svg__training__text-code" dy="1em" transform="translate(378.5 138.5)">PREDICT</text><path fill="none" stroke="#999" stroke-miterlimit="10" stroke-width="2" d="M621 73v6h76.8"/><path fill="#999" stroke="#999" stroke-miterlimit="10" stroke-width="2" d="M703.8 79l-8 4 2-4-2-4z"/><rect width="50" height="20" fill="#f6f6f6" transform="translate(630.5 68.5)"/><text width="43" height="18" class="svg__training__text-code" dy="1em" transform="translate(634.5 68.5)">SAVE</text><rect width="120" height="60" x="501" y="43" fill="#f5f5f5" stroke="#666" stroke-width="2" rx="9" ry="9"/><text width="43" height="18" class="svg__training__text" dy=".9em" transform="translate(538.5 63.5)">Model</text><path fill="none" stroke="#09a3d5" stroke-miterlimit="10" stroke-width="2" d="M121 54h61.8"/><path fill="#09a3d5" stroke="#09a3d5" stroke-miterlimit="10" stroke-width="2" d="M188.8 54l-8 4 2-4-2-4z"/><path fill="none" stroke="#09a3d5" stroke-miterlimit="10" stroke-width="2" d="M121 19h61.8"/><path fill="#09a3d5" stroke="#09a3d5" stroke-miterlimit="10" stroke-width="2" d="M188.8 19l-8 4 2-4-2-4z"/><rect width="120" height="71" x="1" y="1" fill="#dae8fc" stroke="#09a3d5" stroke-width="2" rx="10.7" ry="10.7"/><text width="93" height="18" class="svg__training__text" dy=".9em" transform="translate(10 26.5)">Training data</text><path fill="none" stroke="#87e02d" stroke-miterlimit="10" stroke-width="2" d="M311 54h51.8"/><path fill="#87e02d" stroke="#87e02d" stroke-miterlimit="10" stroke-width="2" d="M368.8 54l-8 4 2-4-2-4z"/><path fill="#dae8fc" stroke="#09a3d5" stroke-width="2" d="M191 39h120v30H191z"/><text width="35" height="18" class="svg__training__text" dy=".9em" transform="translate(232.5 44.5)">label</text><path fill="none" stroke="#f33" stroke-miterlimit="10" stroke-width="2" d="M311 90h51.8"/><path fill="#f33" stroke="#f33" stroke-miterlimit="10" stroke-width="2" d="M368.8 90l-8 4 2-4-2-4z"/><path fill="#f5f5f5" stroke="#09a3d5" stroke-dasharray="2 2" stroke-width="2" d="M191 75h120v30H191z"/><text width="35" height="18" class="svg__training__text" dy=".9em" transform="translate(232.5 80.5)">label</text><rect width="120" height="60" x="706" y="49" fill="#f5f5f5" stroke="#666" stroke-width="2" rx="9" ry="9"/><text width="61" height="38" class="svg__training__text" dy=".9em" transform="translate(734.5 59.5)">Updated <tspan dx="-3.25em" dy="1.25em">Model</tspan></text><path fill="#dae8fc" stroke="#09a3d5" stroke-width="2" d="M191 4h120v30H191z"/><text width="27" height="18" class="svg__training__text" dy=".9em" transform="translate(236.5 9.5)">text</text><path fill="none" stroke="#999" stroke-miterlimit="10" stroke-width="2" d="M461 73h31.8"/><path fill="#999" stroke="#999" stroke-miterlimit="10" stroke-width="2" d="M498.8 73l-8 4 2-4-2-4z"/><path fill="url(#a)" d="M409.5 21L461 72.5 409.5 124 358 72.5z"/><text width="67" height="16" class="svg__training__text-code" dy=".9em" transform="translate(371.5 64.5)">GRADIENT</text></svg>